<svg id="visual" viewBox="0 0 900 200" width="900" height="200" xmlns="http://www.w3.org/2000/svg" xmlns:xlink="http://www.w3.org/1999/xlink" version="1.1"><path d="M0 93L75 83C150 73 300 53 450 50C600 47 750 61 825 68L900 75L900 0L825 0C750 0 600 0 450 0C300 0 150 0 75 0L0 0Z" fill="#ffffff"></path><path d="M0 131L75 117C150 103 300 75 450 69C600 63 750 79 825 87L900 95L900 73L825 66C750 59 600 45 450 48C300 51 150 71 75 81L0 91Z" fill="#5572ae"></path><path d="M0 179L75 166C150 153 300 127 450 121.3C600 115.7 750 130.3 825 137.7L900 145L900 93L825 85C750 77 600 61 450 67C300 73 150 101 75 115L0 129Z" fill="#5572ae"></path><path d="M0 201L75 201C150 201 300 201 450 201C600 201 750 201 825 201L900 201L900 143L825 135.7C750 128.3 600 113.7 450 119.3C300 125 150 151 75 164L0 177Z" fill="#ffffff"></path></svg>